<svg width="50" height="59" viewBox="0 0 50 59" fill="none" xmlns="http://www.w3.org/2000/svg">
<g filter="url(#filter0_d)">
<path d="M5.40567 11.6878C1.84306 25.9382 22.8585 49.0952 25 49.0952C27.1415 49.0952 48.1569 25.9382 44.5943 11.6878C41.0317 -2.56261 8.96828 -2.5626 5.40567 11.6878Z" fill="#1B2440"/>
<path d="M5.40567 11.6878C1.84306 25.9382 22.8585 49.0952 25 49.0952C27.1415 49.0952 48.1569 25.9382 44.5943 11.6878C41.0317 -2.56261 8.96828 -2.5626 5.40567 11.6878Z" stroke="#111426"/>
</g>
<path d="M38.7504 17.0317C38.7504 22.7963 32.7161 27.6648 25 27.6648C17.2839 27.6648 11.2496 22.7963 11.2496 17.0317C11.2496 11.2671 17.2839 6.39856 25 6.39856C32.7161 6.39856 38.7504 11.2671 38.7504 17.0317Z" fill="#93AEBF" stroke="#111426"/>
<g filter="url(#filter1_d)">
<path d="M10.7496 17.0317H15.4997L17.8748 13.4691L22.6249 24.1569L27.3751 9.90649L32.1252 20.5943L34.5003 17.0317H39.2504" stroke="#111426"/>
</g>
<defs>
<filter id="filter0_d" x="0.499969" y="0.5" width="49" height="58.0952" filterUnits="userSpaceOnUse" color-interpolation-filters="sRGB">
<feFlood flood-opacity="0" result="BackgroundImageFix"/>
<feColorMatrix in="SourceAlpha" type="matrix" values="0 0 0 0 0 0 0 0 0 0 0 0 0 0 0 0 0 0 127 0"/>
<feOffset dy="5"/>
<feGaussianBlur stdDeviation="2"/>
<feColorMatrix type="matrix" values="0 0 0 0 0 0 0 0 0 0 0 0 0 0 0 0 0 0 0.5 0"/>
<feBlend mode="normal" in2="BackgroundImageFix" result="effect1_dropShadow"/>
<feBlend mode="normal" in="SourceGraphic" in2="effect1_dropShadow" result="shape"/>
</filter>
<filter id="filter1_d" x="6.74957" y="8.52536" width="36.5008" height="25.0127" filterUnits="userSpaceOnUse" color-interpolation-filters="sRGB">
<feFlood flood-opacity="0" result="BackgroundImageFix"/>
<feColorMatrix in="SourceAlpha" type="matrix" values="0 0 0 0 0 0 0 0 0 0 0 0 0 0 0 0 0 0 127 0"/>
<feOffset dy="4"/>
<feGaussianBlur stdDeviation="2"/>
<feColorMatrix type="matrix" values="0 0 0 0 0 0 0 0 0 0 0 0 0 0 0 0 0 0 0.25 0"/>
<feBlend mode="normal" in2="BackgroundImageFix" result="effect1_dropShadow"/>
<feBlend mode="normal" in="SourceGraphic" in2="effect1_dropShadow" result="shape"/>
</filter>
</defs>
</svg>
